# xmcd
#
# Track frame offsets:
#	150
#	16765
#	32727
#	46690
#	57400
#	75985
#	92187
#	105965
#	122612
#	133307
#	145135
#	161734
#	175782
#	189322
#	199687
#	220642
#	232302
#	245150
#	261165
#	277367
#
# Disc length: 3866 seconds
#
# Revision: 1
# Processed by: cddbd v1.5.2PL0 Copyright (c) Steve Scherf et al.
# Submitted via: audiograbber 1.83.01
#
DISCID=1c0f1814
DTITLE=Georg Ots - Mauno Kuusisto Ja Georg Ots [CD4) 
DYEAR=2003
DGENRE=Oldies
TTITLE0=Muuttuvat Laulut
TTITLE1=Laulu Virran Rannalla
TTITLE2=Kirje Karjalaan
TTITLE3=Tuntematon Hauta
TTITLE4=Tuomen Tarina
TTITLE5=Leningrad
TTITLE6=Kun Päättyy Työ
TTITLE7=Heijastus
TTITLE8=Karjalan Kunnailla
TTITLE9=Yksi Ruusu On Kasvanut Laaksossa
TTITLE10=Syysunelmia
TTITLE11=Kuolleet Lehdet
TTITLE12=Valaistu Ikkuna
TTITLE13=Venezuela
TTITLE14=Vilja-Laulu
TTITLE15=Vait' On Huulet
TTITLE16=Kesäyö
TTITLE17=Kaikki Alkoi Sinun Kanssasi
TTITLE18=Hopeahapset
TTITLE19=Hyvää Yötä
EXTD=TR.
EXTT0=
EXTT1=
EXTT2=
EXTT3=
EXTT4=
EXTT5=
EXTT6=
EXTT7=
EXTT8=
EXTT9=
EXTT10=
EXTT11=
EXTT12=
EXTT13=
EXTT14=
EXTT15=
EXTT16=
EXTT17=
EXTT18=
EXTT19=
PLAYORDER=
